<?xml version="1.0" standalone="no"?><!DOCTYPE svg PUBLIC "-//W3C//DTD SVG 1.1//EN" "http://www.w3.org/Graphics/SVG/1.1/DTD/svg11.dtd"><svg t="1770794946311" class="icon" viewBox="0 0 1024 1024" version="1.1" xmlns="http://www.w3.org/2000/svg" p-id="7554" xmlns:xlink="http://www.w3.org/1999/xlink" width="64" height="64"><path d="M853.67000745 442.92550122v260.79383554c0 42.80999015-34.82650538 77.52079355-77.52079354 77.52079573H255.14005479c-42.80999015 0-77.63649767-34.82650538-77.63649768-77.52079573V282.21448143c0-42.80999015 34.82650538-77.63649767 77.63649768-77.63649765h360.29813938l88.04973869-87.93403456H228.06562815c-76.3637675 0-138.49610558 62.1323381-138.49610563 138.49610557v475.53800668c0 76.3637675 62.1323381 138.49610558 138.49610563 138.49610557h575.0423105c76.3637675 0 138.61180755-62.1323381 138.61180754-138.49610557V354.99146666l-88.04973874 87.93403456z" fill="#76D1FB" p-id="7555"></path><path d="M410.41304796 643.32253885l181.42179986-51.60339299-129.58699866-128.66137865zM894.97586354 290.54507425L765.38886489 161.76799362 480.29746694 445.00814943l129.58699869 128.77708061L894.97586354 290.54507425zM955.14125758 182.36306961l-80.99187609-80.52906394c-13.42151139-13.30580725-35.86782947-12.61159116-50.21496084 1.61983822L785.05832085 142.09853765l129.58699866 128.7770806 38.87609983-38.6446937c14.34713137-14.23142941 15.04134742-36.56204557 1.61983824-49.86785494z" fill="#76D1FB" p-id="7556"></path></svg>